<?xml version="1.0" encoding="utf-8"?>
<!-- Generator: Adobe Illustrator 19.2.1, SVG Export Plug-In . SVG Version: 6.00 Build 0)  -->
<svg version="1.1" id="Layer_1" xmlns="http://www.w3.org/2000/svg" xmlns:xlink="http://www.w3.org/1999/xlink" x="0px" y="0px"
	 viewBox="0 0 55 55" style="enable-background:new 0 0 55 55;" xml:space="preserve">
<style type="text/css">
	.st0{fill:#FCD136;}
	.st1{fill:#1D2636;}
	.st2{fill:#FFFFFF;stroke:#1D2636;stroke-linecap:round;stroke-miterlimit:10;}
</style>
<rect class="st0" width="55" height="55"/>
<g>
	<path class="st1" d="M23,44.6v2.3h-0.7v-2.4c0-0.6,0-1-0.3-1.3c-0.3-0.4-0.7-0.4-1.3-0.4h-1.1v-0.6h1.1c1,0,1.5,0.1,1.9,0.6
		C22.9,43.2,23,43.7,23,44.6z"/>
	<path class="st1" d="M25.6,46.9h-0.7v-4.1h-0.6v-0.6h1.4V46.9z"/>
	<path class="st1" d="M29.6,42.2v0.6H29c-0.6,0-0.8,0.3-0.6,1c0.1,0.5,0.3,1.2,0.4,1.9c0.1,0.4,0.2,0.8,0.3,1.2h-0.7
		c-0.1-0.5-0.2-0.9-0.3-1.3c-0.1-0.7-0.3-1.4-0.3-1.6c-0.2-0.7,0.2-1,0.3-1.1h-1v-0.6H29.6z"/>
	<path class="st1" d="M35,42.8h-0.4v4.1h-0.7v-4.1h-2v4.1H31v-4.1h-0.5v-0.6H35V42.8z"/>
</g>
<g>
	<line class="st2" x1="21" y1="15.3" x2="33.6" y2="27.9"/>
	<line class="st2" x1="33.6" y1="15.3" x2="21" y2="27.9"/>
</g>
</svg>
