<?xml version="1.0" encoding="utf-8"?>
<!-- Generator: Adobe Illustrator 19.1.0, SVG Export Plug-In . SVG Version: 6.00 Build 0)  -->
<svg version="1.1" id="Layer_1" xmlns="http://www.w3.org/2000/svg" xmlns:xlink="http://www.w3.org/1999/xlink" x="0px" y="0px"
	 viewBox="0 0 30 20" style="enable-background:new 0 0 30 20;" xml:space="preserve">
<style type="text/css">
	.st0{fill:#F2F1F1;}
	.st1{fill:#FCD136;}
	.st2{fill:#00FF00;}
	.st3{fill:#FF0000;}
	.st4{fill:#FF0000;stroke:#FF0000;stroke-width:0.25;stroke-miterlimit:10;}
	.st5{fill:#FFFFFF;}
	.st6{fill:none;stroke:#FFFFFF;stroke-linecap:round;stroke-miterlimit:10;}
</style>
<g>
	<path class="st3" d="M23.1,12.5c0-0.2,0-0.4,0-0.6v-1.5c0.5,0.1,0.8,0.5,0.8,1.1C24,11.9,23.6,12.4,23.1,12.5 M22.4,11.9
		c0,4-3.3,7.3-7.3,7.3H15c-4,0-7.3-3.3-7.3-7.3V8.6c0-0.2,0-0.4,0-0.6c0-4,3.3-7.3,7.4-7.3c2.9,0,5.4,1.7,6.6,4.1c0,0,0,0,0,0
		c0,0,0,0.1,0.1,0.1c0,0.1,0.1,0.2,0.1,0.2c0,0,0,0,0,0c0,0,0,0.1,0,0.1c0,0,0,0,0,0c0.1,0.2,0.2,0.5,0.3,0.7c0,0,0,0,0,0
		c0.2,0.7,0.3,1.3,0.3,2.1V11.9z M6,11.4c0-0.5,0.4-0.9,0.8-1.1v1.5c0,0.2,0,0.4,0,0.6C6.4,12.4,6,11.9,6,11.4 M23.2,9.5V8.1
		C23.2,3.6,19.5,0,15,0H15c-4.5,0-8.1,3.6-8.1,8.1v1.4c-0.9,0.1-1.6,0.9-1.6,1.9c0,1,0.8,1.8,1.7,1.9c0.7,3.8,4,6.7,8,6.7H15
		c4,0,7.3-2.9,8-6.7c1-0.1,1.7-0.9,1.7-1.9C24.8,10.5,24.1,9.7,23.2,9.5"/>
	<path class="st3" d="M21.6,4.8c0,0,0,0.1,0.1,0.1C21.6,4.9,21.6,4.9,21.6,4.8"/>
	<path class="st3" d="M21.8,5.2C21.8,5.2,21.8,5.2,21.8,5.2C21.8,5.2,21.8,5.2,21.8,5.2"/>
	<path class="st3" d="M11.3,16.1c0.2,0.2,0.4,0.2,0.6,0c1.7-1.7,4.5-1.7,6.3,0c0.2,0.2,0.4,0.2,0.6,0c0.2-0.2,0.2-0.4,0-0.6
		c-0.5-0.5-1-0.8-1.6-1.1c-0.7-0.3-1.4-0.5-2.1-0.5c-0.7,0-1.4,0.1-2.1,0.4c-0.6,0.3-1.2,0.6-1.6,1.1C11.1,15.7,11.1,16,11.3,16.1"
		/>
	<path class="st3" d="M12.8,9.6c-0.3,0-0.6,0.4-0.6,0.8s0.3,0.8,0.6,0.8c0.3,0,0.6-0.4,0.6-0.8S13.1,9.6,12.8,9.6"/>
	<path class="st3" d="M17.1,9.6c-0.3,0-0.6,0.4-0.6,0.8s0.3,0.8,0.6,0.8c0.3,0,0.6-0.4,0.6-0.8S17.4,9.6,17.1,9.6"/>
	<path class="st3" d="M22.9,10.2c-1.2-0.1-2.2-1.1-2.7-2.8C20,7,20,6.5,20,6.1c0-0.2,0-0.4,0-0.5c-0.2,0.1-0.6,0.3-0.9,0.5
		c-1.4,0.8-2.2,1.3-2.7,0.9c-0.2-0.1-0.3-0.4-0.2-0.8c0.2-0.8,0.3-1.2,0.3-1.5C15.9,5,15.2,5.6,14.6,6c-1.7,1.3-2.3,1.7-2.7,1.5
		c-0.1,0-0.3-0.2-0.2-0.6c0.1-0.8,0.2-1.4,0.2-1.7c-0.5,0.4-1.3,1.4-1.8,2.1c-1,1.3-1.9,2.6-2.7,2.8L7.2,9.5C7.7,9.3,8.7,8,9.5,7
		c1.4-1.9,2.2-2.8,2.9-2.5l0.1,0.1l0,0.2c0,0.1,0.1,0.5-0.1,2c0.4-0.3,1.2-0.8,1.7-1.3c1.4-1.1,2-1.6,2.5-1.6c0.1,0,0.2,0,0.3,0
		c0.3,0.1,0.4,0.3-0.1,2.5c0,0,0,0.1,0,0.1c0.4-0.1,1.4-0.6,1.9-0.9c0.6-0.3,0.9-0.5,1.1-0.6c0.3-0.1,0.5,0,0.6,0.1
		c0.3,0.2,0.3,0.6,0.3,1.1c0,0.4,0,0.8,0.2,1.2c0.3,1,0.9,2.1,2,2.2L22.9,10.2z"/>
</g>
</svg>
