<?xml version="1.0" encoding="utf-8"?>
<!-- Generator: Adobe Illustrator 19.1.0, SVG Export Plug-In . SVG Version: 6.00 Build 0)  -->
<svg version="1.1" id="Layer_1" xmlns="http://www.w3.org/2000/svg" xmlns:xlink="http://www.w3.org/1999/xlink" x="0px" y="0px"
	 viewBox="0 0 30 20" style="enable-background:new 0 0 30 20;" xml:space="preserve">
<style type="text/css">
	.st0{fill:#F2F1F1;}
	.st1{fill:#FCD136;}
	.st2{fill:#00FF00;}
	.st3{fill:#FF0000;}
	.st4{fill:#FF0000;stroke:#FF0000;stroke-width:0.25;stroke-miterlimit:10;}
	.st5{fill:#FFFFFF;}
	.st6{fill:none;stroke:#FFFFFF;stroke-linecap:round;stroke-miterlimit:10;}
</style>
<g>
	<path class="st2" d="M19.3,9.8c0,0,0.1,0,0.1,0c0.2,0.1,0.3,0.2,0.3,0.4v5.6c0,0.2-0.2,0.4-0.4,0.4c-0.2,0-0.4-0.2-0.4-0.4v-4.5
		L18,12.4c-0.1,0.2-0.4,0.2-0.6,0.1c-0.2-0.1-0.2-0.4-0.1-0.6l1.6-2C19.1,9.9,19.2,9.8,19.3,9.8"/>
	<path class="st2" d="M19.3,9.8c0.1,0,0.2,0.1,0.3,0.1l1.7,2.1c0.1,0.2,0.1,0.4-0.1,0.6c-0.2,0.1-0.4,0.1-0.6-0.1L19,10.4
		c-0.1-0.2-0.1-0.4,0.1-0.6C19.2,9.8,19.3,9.8,19.3,9.8"/>
	<path class="st2" d="M4,12c0.4,0.5,1,1,1.8,1.3c1.4,0.7,3.3,1.1,5.5,1.1c0.3,0,0.6,0,0.9,0c0.2,0.9,0.6,1.7,1,2.4
		c-0.6,0.1-1.3,0.1-1.9,0.1c-2.1,0-3.9-0.4-5.2-1c-1.3-0.6-2-1.5-2-2.3V12z M4,8.6c0.4,0.5,1,1,1.8,1.3c1.4,0.7,3.3,1.1,5.5,1.1
		c0.3,0,0.6,0,0.9,0c-0.1,0.6-0.2,1.1-0.2,1.7c0,0.4,0,0.7,0.1,1.1c-0.3,0-0.5,0-0.8,0c-2.1,0-3.9-0.4-5.2-1s-2-1.5-2-2.3v0V8.6z
		 M19.3,6C23,6,26,9,26,12.7s-3,6.7-6.7,6.7c-3.7,0-6.7-3-6.7-6.7S15.6,6,19.3,6 M4,5.4c0.4,0.5,1,1,1.8,1.3
		c1.4,0.7,3.3,1.1,5.5,1.1c1,0,1.9-0.1,2.8-0.3c-0.8,0.8-1.4,1.7-1.7,2.8c-0.4,0-0.7,0.1-1.1,0.1c-2.1,0-3.9-0.4-5.2-1
		C4.7,8.8,4,7.9,4,7.1v0V5.4z M18.5,5.4L18.5,5.4L18.5,5.4C18.5,5.4,18.5,5.4,18.5,5.4 M11.3,0.6c2,0,3.9,0.4,5.2,1
		c1.3,0.6,2,1.4,2.1,2.2v0v0c0,0.6-0.4,1.2-1.1,1.7c0,0,0,0,0,0c-0.9,0.2-1.7,0.6-2.4,1.1c-1.1,0.3-2.4,0.5-3.8,0.5
		c-2.1,0-3.9-0.4-5.2-1c-1.2-0.6-2-1.4-2-2.1V3.9c0,0,0-0.1,0-0.1C4,3,4.8,2.2,6,1.6C7.4,1,9.2,0.6,11.3,0.6 M11.3,0
		C9.1,0,7.2,0.4,5.8,1.1C4.4,1.7,3.5,2.7,3.4,3.8c0,0,0,0,0,0v0c0,0,0,0.1,0,0.1V7v0.1v3.3v0v3.1c0,1.2,1,2.1,2.4,2.8
		c1.4,0.7,3.4,1.1,5.5,1.1c0.8,0,1.6-0.1,2.3-0.2c1.3,1.7,3.4,2.8,5.7,2.8c4,0,7.3-3.3,7.3-7.3c0-4-3.3-7.3-7.3-7.3h-0.2V3.9
		c0,0,0-0.1,0-0.1v0c0,0,0,0,0,0c-0.1-1.1-1-2-2.4-2.7C15.3,0.4,13.4,0,11.3,0"/>
</g>
</svg>
