<?xml version="1.0" encoding="utf-8"?>
<!-- Generator: Adobe Illustrator 19.1.0, SVG Export Plug-In . SVG Version: 6.00 Build 0)  -->
<svg version="1.1" id="Layer_1" xmlns="http://www.w3.org/2000/svg" xmlns:xlink="http://www.w3.org/1999/xlink" x="0px" y="0px"
	 viewBox="0 0 30 20" style="enable-background:new 0 0 30 20;" xml:space="preserve">
<style type="text/css">
	.st0{fill:#F2F1F1;}
	.st1{fill:#FCD136;}
	.st2{fill:#00FF00;}
	.st3{fill:#FF0000;}
	.st4{fill:#FF0000;stroke:#FF0000;stroke-width:0.25;stroke-miterlimit:10;}
	.st5{fill:#FFFFFF;}
	.st6{fill:none;stroke:#FFFFFF;stroke-linecap:round;stroke-miterlimit:10;}
</style>
<g>
	<path class="st3" d="M2.2,8.1h1c0.2,0,0.4,0.2,0.4,0.4v10.1c0,0.2,0.3,0.4,0.7,0.4h13c0.4,0,0.7-0.2,0.7-0.4V8.5
		c0-0.2,0.2-0.4,0.4-0.4h1l-8.6-7.3L2.2,8.1z M17.2,19.8h-13c-0.8,0-1.4-0.5-1.4-1.1V8.9H1.2C1,8.9,0.9,8.8,0.8,8.6
		c-0.1-0.1,0-0.3,0.1-0.4l9.6-8.1C10.6,0,10.8,0,11,0.1l9.6,8.1c0.1,0.1,0.2,0.3,0.1,0.4c-0.1,0.1-0.2,0.2-0.4,0.2h-1.6v9.7
		C18.7,19.3,18,19.8,17.2,19.8"/>
	<path class="st3" d="M21,16.2l4.1,2.9c0.2,0.2,0.5,0.1,0.7-0.1l2.1-3c0.2-0.2,0.1-0.5-0.1-0.7l-4.1-2.9L20.3,13
		C20.6,14.2,20.9,15.8,21,16.2 M25.4,20c-0.3,0-0.5-0.1-0.7-0.2l-4.2-3c0,0-0.1-0.1-0.1-0.1c-0.1-0.1-0.1-0.2-0.9-4
		c0-0.1,0-0.2,0.1-0.3c0.1-0.1,0.2-0.1,0.3-0.2l3.9-0.6c0.1,0,0.2,0,0.3,0.1l4.2,3c0.6,0.4,0.7,1.2,0.3,1.7l-2.1,3
		C26.2,19.8,25.8,20,25.4,20"/>
	<path class="st3" d="M21.9,13.4c0.2,0.2,0.3,0.5,0.1,0.7c-0.2,0.2-0.5,0.3-0.7,0.1c-0.2-0.2-0.3-0.5-0.1-0.7
		C21.4,13.3,21.7,13.3,21.9,13.4"/>
	<path class="st3" d="M21.6,14.2c-2.8-0.1-3.7-2.8-3.7-2.9l0.7-0.2c0,0.1,0.7,2.2,3,2.3L21.6,14.2z"/>
	<path class="st3" d="M10.8,8.5c0.2,0,0.4,0.2,0.4,0.4v5l1.1-1.3c0.1-0.2,0.4-0.2,0.5-0.1c0.2,0.1,0.2,0.4,0.1,0.5l-1.8,2.1
		c-0.1,0.1-0.3,0.2-0.4,0.1c-0.1-0.1-0.2-0.2-0.2-0.4V8.9C10.4,8.7,10.6,8.5,10.8,8.5"/>
	<path class="st3" d="M9,12.3c0.1,0,0.2,0,0.3,0.1l1.8,2.3c0.1,0.2,0.1,0.4-0.1,0.5c-0.2,0.1-0.4,0.1-0.5-0.1l-1.8-2.3
		c-0.1-0.2-0.1-0.4,0.1-0.5C8.8,12.4,8.9,12.3,9,12.3"/>
</g>
</svg>
