<?xml version="1.0" encoding="utf-8"?>
<!-- Generator: Adobe Illustrator 19.2.1, SVG Export Plug-In . SVG Version: 6.00 Build 0)  -->
<svg version="1.1" id="Layer_1" xmlns="http://www.w3.org/2000/svg" xmlns:xlink="http://www.w3.org/1999/xlink" x="0px" y="0px"
	 viewBox="0 0 23 23" style="enable-background:new 0 0 23 23;" xml:space="preserve">
<style type="text/css">
	.st0{clip-path:url(#SVGID_2_);fill:#F2F1F1;}
	.st1{clip-path:url(#SVGID_2_);fill:none;stroke:#F2F1F1;stroke-width:0.272;stroke-miterlimit:10;}
	.st2{clip-path:url(#SVGID_2_);fill:none;stroke:#F2F1F1;stroke-width:0.25;stroke-miterlimit:10;}
</style>
<g>
	<defs>
		<rect id="SVGID_1_" y="1" width="23" height="21"/>
	</defs>
	<clipPath id="SVGID_2_">
		<use xlink:href="#SVGID_1_"  style="overflow:visible;"/>
	</clipPath>
	<path class="st0" d="M11.9,13.9c-0.2,0-0.4-0.2-0.4-0.4V6.1c0-0.2,0.2-0.4,0.4-0.4c0.2,0,0.4,0.2,0.4,0.4v7.4
		C12.3,13.8,12.2,13.9,11.9,13.9"/>
	<path class="st1" d="M11.9,13.9c-0.2,0-0.4-0.2-0.4-0.4V6.1c0-0.2,0.2-0.4,0.4-0.4c0.2,0,0.4,0.2,0.4,0.4v7.4
		C12.3,13.8,12.2,13.9,11.9,13.9z"/>
	<path class="st0" d="M12.8,16.6c0,0.4-0.4,0.8-0.9,0.8s-0.9-0.4-0.9-0.8c0-0.4,0.4-0.8,0.9-0.8S12.8,16.1,12.8,16.6"/>
	<path class="st0" d="M6.4,19.6c0.1,0,0.1,0,0.2,0.1c1.6,1,3.5,1.5,5.4,1.5c5.6,0,10.2-4.3,10.2-9.7s-4.6-9.7-10.2-9.7
		S1.8,6.2,1.8,11.5c0,1.9,0.6,3.7,1.6,5.3c0.1,0.1,0.1,0.3,0,0.4l-2.2,3.6L6.4,19.6C6.3,19.6,6.3,19.6,6.4,19.6 M11.9,21.9
		c-2,0-3.9-0.5-5.6-1.5l-5.7,1.3c-0.2,0-0.3,0-0.4-0.1c-0.1-0.1-0.1-0.3,0-0.4L2.7,17C1.6,15.3,1,13.4,1,11.5
		C1,5.8,5.9,1.1,11.9,1.1s10.9,4.7,10.9,10.4C22.9,17.2,18,21.9,11.9,21.9"/>
	<path class="st2" d="M6.4,19.6c0.1,0,0.1,0,0.2,0.1c1.6,1,3.5,1.5,5.4,1.5c5.6,0,10.2-4.3,10.2-9.7s-4.6-9.7-10.2-9.7
		S1.8,6.2,1.8,11.5c0,1.9,0.6,3.7,1.6,5.3c0.1,0.1,0.1,0.3,0,0.4l-2.2,3.6L6.4,19.6C6.3,19.6,6.3,19.6,6.4,19.6z M11.9,21.9
		c-2,0-3.9-0.5-5.6-1.5l-5.7,1.3c-0.2,0-0.3,0-0.4-0.1c-0.1-0.1-0.1-0.3,0-0.4L2.7,17C1.6,15.3,1,13.4,1,11.5
		C1,5.8,5.9,1.1,11.9,1.1s10.9,4.7,10.9,10.4C22.9,17.2,18,21.9,11.9,21.9z"/>
</g>
</svg>
