<?xml version="1.0" encoding="utf-8"?>
<!-- Generator: Adobe Illustrator 19.2.0, SVG Export Plug-In . SVG Version: 6.00 Build 0)  -->
<svg version="1.1" id="Layer_1" xmlns="http://www.w3.org/2000/svg" xmlns:xlink="http://www.w3.org/1999/xlink" x="0px" y="0px"
	 viewBox="0 0 38 38.8" style="enable-background:new 0 0 38 38.8;" xml:space="preserve">
<style type="text/css">
	.st0{fill:#1D2636;}
	.st1{fill:#FFFFFF;}
</style>
<polygon class="st0" points="2.1,16.2 9.6,1.9 11.9,1 35.2,12.3 35.8,15.7 28.6,30 25.6,31.3 3.2,20.5 "/>
<g>
	<path class="st1" d="M24.6,32.2c-0.2-0.1-0.4-0.1-0.5-0.2L3.3,21.7c-2.2-1.1-3-3.8-1.8-6.1L7.7,3c1.1-2.3,3.8-3.3,6-2.2l20.7,10.3
		c2.2,1.1,3,3.8,1.8,6.1l-6.3,12.6C29.1,31.8,26.7,32.9,24.6,32.2z M12.6,2.3c-1.2-0.4-2.5,0.3-3.2,1.5L3.2,16.4
		c-0.7,1.4-0.2,3,1,3.6l20.7,10.3c1.2,0.6,2.8,0,3.5-1.4l6.3-12.6c0.7-1.4,0.2-3-1-3.6L12.9,2.4C12.8,2.4,12.7,2.3,12.6,2.3z"/>
	<path class="st1" d="M8.2,38.4c0,0-0.1,0-0.1-0.1c-0.5-0.2-0.7-0.8-0.4-1.3l5.6-11.2c0.2-0.5,0.8-0.7,1.3-0.4
		c0.5,0.2,0.7,0.8,0.4,1.3L9.4,37.9C9.2,38.3,8.7,38.5,8.2,38.4z"/>
	<path class="st1" d="M21.4,20c0.1-0.1,0.1-0.1,0-0.2c-0.1,0-0.1-0.1-0.1-0.2c-0.1-0.1-0.1-0.3-0.1-0.4c0-0.1,0.1-0.2,0.1-0.4
		c0.3-0.8,0.7-1.6,1-2.4c0.1-0.3,0.3-0.6,0.4-1c0.1-0.5,0.1-0.9-0.1-1.3c-0.2-0.3-0.5-0.5-0.8-0.7c-0.8-0.4-1.6-0.8-2.3-1.2
		c-0.1,0-0.1-0.1-0.2-0.1c-0.2-0.1-0.2-0.2-0.2-0.4c0-0.1,0-0.2,0-0.3c-0.2-0.1-0.5-0.1-0.7-0.2c-0.3,0.9-0.7,1.7-1,2.6
		c0,0,0.1,0,0.1,0.1c0.9,0.5,1.8,0.9,2.7,1.4c0.4,0.2,0.6,0.5,0.6,1c0,0.3-0.1,0.5-0.1,0.8c-0.2,0.6-0.4,1.1-0.6,1.6
		c0,0.1-0.1,0.1-0.1,0.2c0,0-0.1,0-0.1-0.1c-1.4-0.7-2.7-1.4-4.1-2c-0.2-0.1-0.2-0.1-0.3,0.1c-0.3,0.5-0.7,1-1,1.4
		c-0.1,0.1-0.2,0.2-0.3,0.4c0,0,0.1,0,0.1,0c2.1,1,4.2,2.1,6.2,3.1c0.1,0,0.1,0,0.1,0C20.8,21.2,21.1,20.6,21.4,20z"/>
	<path class="st1" d="M18.6,9.9c-0.3-0.1-0.6-0.3-0.9-0.3c-0.2,0-0.3,0-0.5,0.1c-0.1,0.1-0.2,0.2-0.3,0.3c-0.2,0.2-0.4,0.5-0.5,0.7
		c-0.3,0.4-0.7,0.8-1.2,0.9c0,0-0.1,0-0.1,0c-0.1,0.1-0.1,0.1,0,0.2c0.1,0,0.1,0.1,0.2,0.1c0.6,0.1,1.1,0.1,1.6-0.3
		c0.4-0.3,0.8-0.6,1.2-1C18.3,10.3,18.4,10.1,18.6,9.9z"/>
</g>
</svg>
