<?xml version="1.0" encoding="utf-8"?>
<!-- Generator: Adobe Illustrator 19.2.1, SVG Export Plug-In . SVG Version: 6.00 Build 0)  -->
<svg version="1.1" id="Layer_1" xmlns="http://www.w3.org/2000/svg" xmlns:xlink="http://www.w3.org/1999/xlink" x="0px" y="0px"
	 viewBox="0 0 55 55" enable-background="new 0 0 55 55" xml:space="preserve">
<rect fill="#1D2636" width="55" height="55"/>
<path fill="#FCD136" d="M18.792,23.98c1.406,0,1.802,0.606,1.802,1.846l-0.009,3.797c0,1.459,0.334,2.672,0.861,3.674h-1.389
	c-0.51-0.844-0.668-2.074-0.668-2.074c-0.167,0.589-0.475,1.081-0.932,1.477s-1.055,0.598-1.784,0.598h-0.65v-1.31h0.589
	c0.923,0,1.521-0.229,1.969-0.782c0.457-0.562,0.58-1.415,0.58-2.285v-3.05c0-0.492-0.044-0.668-0.668-0.668h-1.459V23.98H18.792z
	 M24.844,33.305l3.542-8.112h-5.766v-3.498h1.336v2.285h5.915v1.213l-3.542,8.112H24.844z M38.977,23.98v1.222h-1.248v8.104h-1.485
	v-8.104h-5.414V23.98H38.977z"/>
</svg>
