<?xml version="1.0" encoding="utf-8"?>
<!-- Generator: Adobe Illustrator 19.2.0, SVG Export Plug-In . SVG Version: 6.00 Build 0)  -->
<svg version="1.1" id="Layer_1" xmlns="http://www.w3.org/2000/svg" xmlns:xlink="http://www.w3.org/1999/xlink" x="0px" y="0px"
	 viewBox="0 0 75.2 55.6" style="enable-background:new 0 0 75.2 55.6;" xml:space="preserve">
<style type="text/css">
	.st0{fill:#1D2636;}
	.st1{fill:#FCD136;}
</style>
<polygon class="st0" points="11,40.8 36.9,8.2 40.4,10.5 64.3,41 64,51.2 12.3,51.9 "/>
<path class="st1" d="M74,49.1c-0.2-0.4-0.6-0.8-1.1-0.8c-0.4,0-0.8,0.2-1,0.6l-1.6-2.1L38.8,6.5c0,0,0,0,0,0V3
	c0-0.6-0.5-1.1-1.1-1.1c-0.6,0-1.1,0.5-1.1,1.1v3.5c0,0,0,0,0,0L4.9,46.8L3.2,49c-0.2-0.4-0.6-0.7-1.1-0.7c-0.5,0-0.9,0.3-1.1,0.8
	C1,49.2,1,49.3,1,49.4v4.2c0,0.6,0.5,1.1,1.1,1.1c0.6,0,1.1-0.5,1.1-1.1v-1.1c0,0,0.1-0.1,0.1-0.1L6,49.1l1.8-2.3l1.9-2.4v2.4v2.3
	v1.4c0,1.6,1.3,2.8,2.8,2.8h50.3c1.6,0,2.8-1.3,2.8-2.8v-1.4v-2.3v-2.2l1.7,2.2l1.8,2.3l2.6,3.3v1.3c0,0.6,0.5,1.1,1.1,1.1
	c0.6,0,1.1-0.5,1.1-1.1v-4.2C74,49.3,74,49.2,74,49.1z M36.5,51H12.5c-0.3,0-0.5-0.2-0.5-0.5v-1.4v-2.3v-5.4l24.5-31.3v36.6v2.3V51z
	 M63.4,49.1v1.4c0,0.3-0.2,0.5-0.5,0.5H38.8v-1.9v-2.3V10.2l24.6,31.4c0,0.1,0,0.1,0,0.2v5V49.1z"/>
</svg>
