<?xml version="1.0" encoding="utf-8"?>
<!-- Generator: Adobe Illustrator 19.2.0, SVG Export Plug-In . SVG Version: 6.00 Build 0)  -->
<svg version="1.1" id="Layer_1" xmlns="http://www.w3.org/2000/svg" xmlns:xlink="http://www.w3.org/1999/xlink" x="0px" y="0px"
	 viewBox="0 0 38 48" style="enable-background:new 0 0 38 48;" xml:space="preserve">
<style type="text/css">
	.st0{fill:#1D2636;stroke:#2CD797;stroke-width:2;stroke-miterlimit:10;}
	.st1{fill:#2CD797;}
	.st2{fill:#1D2636;}
</style>
<g>
	<circle class="st0" cx="18.7" cy="16.6" r="14.7"/>
	<g>
		<path class="st1" d="M19.6,10.7c-0.6,0-1,0.5-1,1v13l-7.9-8.4c-0.2-0.2-0.5-0.3-0.8-0.3c-0.3,0-0.5,0.1-0.7,0.3
			c-0.4,0.4-0.4,1.1,0,1.5l9.4,10V44c0,0.6,0.5,1,1,1c0.6,0,1-0.5,1-1V11.8C20.6,11.2,20.1,10.7,19.6,10.7z"/>
		<path class="st2" d="M19.6,10.7c0.6,0,1,0.5,1,1V44c0,0.6-0.5,1-1,1c-0.6,0-1-0.5-1-1V27.8l-9.4-10c-0.4-0.4-0.4-1.1,0-1.5
			C9.3,16.1,9.6,16,9.9,16c0.3,0,0.6,0.1,0.8,0.3l7.9,8.4v-13C18.5,11.2,19,10.7,19.6,10.7 M19.6,8.7c-1.7,0-3,1.4-3,3v7.9L12.1,15
			c-0.6-0.6-1.4-1-2.2-1c-0.8,0-1.5,0.3-2.1,0.8c-1.2,1.2-1.3,3.1-0.1,4.3l8.9,9.4V44c0,1.7,1.4,3,3,3c1.7,0,3-1.4,3-3V11.8
			C22.6,10.1,21.2,8.7,19.6,8.7L19.6,8.7z"/>
	</g>
</g>
</svg>
