<?xml version="1.0" encoding="utf-8"?>
<!-- Generator: Adobe Illustrator 19.2.0, SVG Export Plug-In . SVG Version: 6.00 Build 0)  -->
<svg version="1.1" id="Layer_1" xmlns="http://www.w3.org/2000/svg" xmlns:xlink="http://www.w3.org/1999/xlink" x="0px" y="0px"
	 viewBox="0 0 45.2 74.5" style="enable-background:new 0 0 45.2 74.5;" xml:space="preserve">
<style type="text/css">
	.st0{fill:#1D2636;stroke:#2CD797;stroke-width:2;stroke-miterlimit:10;}
	.st1{fill:#2CD797;}
	.st2{fill:#1D2636;}
</style>
<circle class="st0" cx="22.8" cy="22.3" r="20.9"/>
<g>
	<path class="st1" d="M23,72.2c-1.1,0-2-0.9-2-2V36.1l-9.3-9.8c-0.4-0.4-0.6-0.9-0.6-1.5c0-0.5,0.2-1.1,0.6-1.4
		c0.4-0.4,0.9-0.6,1.4-0.6c0.6,0,1.1,0.2,1.5,0.6l6.3,6.7v-12c0-1.1,0.9-2,2-2c1.1,0,2,0.9,2,2v6.6l5.9-6.3c0.4-0.4,0.9-0.6,1.5-0.6
		c0.5,0,1,0.2,1.4,0.6c0.4,0.4,0.6,0.9,0.6,1.4c0,0.5-0.2,1.1-0.6,1.5l-8.9,9.5v39.4C25.1,71.3,24.2,72.2,23,72.2z"/>
	<path class="st2" d="M23,17.1c0.6,0,1,0.5,1,1v9.2l7.7-8.1c0.2-0.2,0.5-0.3,0.8-0.3c0.3,0,0.5,0.1,0.7,0.3c0.2,0.2,0.3,0.5,0.3,0.7
		c0,0.3-0.1,0.5-0.3,0.7l-9.2,9.8v39.8c0,0.6-0.5,1-1,1c-0.6,0-1-0.5-1-1V35.7c0,0,0,0,0,0c0,0-0.1,0-0.1-0.1l-9.4-10
		c-0.2-0.2-0.3-0.5-0.3-0.7c0-0.3,0.1-0.5,0.3-0.7c0.2-0.2,0.5-0.3,0.7-0.3c0.3,0,0.6,0.1,0.8,0.3l8,8.5V18.2
		C22,17.6,22.5,17.1,23,17.1 M23,15.1c-1.7,0-3,1.4-3,3v9.4l-4.6-4.8c-0.6-0.6-1.4-1-2.2-1c-0.8,0-1.5,0.3-2.1,0.8
		c-0.6,0.6-0.9,1.3-1,2.1c0,0.8,0.3,1.6,0.8,2.2l9,9.5v33.7c0,1.7,1.4,3,3,3c1.7,0,3-1.4,3-3v-39l8.7-9.2c0.6-0.6,0.9-1.4,0.8-2.2
		c0-0.8-0.4-1.6-1-2.1c-0.6-0.5-1.3-0.8-2.1-0.8c-0.8,0-1.6,0.3-2.2,1l-4.2,4.5v-4.1C26.1,16.5,24.7,15.1,23,15.1L23,15.1z"/>
</g>
</svg>
