<?xml version="1.0" encoding="utf-8"?>
<!-- Generator: Adobe Illustrator 19.1.0, SVG Export Plug-In . SVG Version: 6.00 Build 0)  -->
<svg version="1.1" id="Layer_1" xmlns="http://www.w3.org/2000/svg" xmlns:xlink="http://www.w3.org/1999/xlink" x="0px" y="0px"
	 viewBox="0 0 19.6 20" style="enable-background:new 0 0 19.6 20;" xml:space="preserve">
<style type="text/css">
	.st0{fill:#F2F1F1;}
	.st1{fill:#FCD136;}
	.st2{fill:#00FF00;}
	.st3{fill:#FF0000;}
	.st4{fill:#FF0000;stroke:#FF0000;stroke-width:0.25;stroke-miterlimit:10;}
	.st5{fill:#FFFFFF;}
	.st6{fill:none;stroke:#FFFFFF;stroke-linecap:round;stroke-miterlimit:10;}
</style>
<g>
	<path class="st2" d="M17.9,12.5c0-0.2,0-0.4,0-0.6v-1.5c0.5,0.1,0.8,0.5,0.8,1.1C18.8,11.9,18.4,12.4,17.9,12.5 M17.1,11.9
		c0,4-3.3,7.3-7.3,7.3H9.7c-4,0-7.3-3.3-7.3-7.3V8.6c0-0.2,0-0.4,0-0.6c0-4,3.3-7.3,7.4-7.3c2.9,0,5.4,1.7,6.6,4.1c0,0,0,0,0,0
		c0,0,0,0.1,0.1,0.1c0,0.1,0.1,0.2,0.1,0.2c0,0,0,0,0,0c0,0,0,0.1,0,0.1c0,0,0,0,0,0c0.1,0.2,0.2,0.5,0.3,0.7c0,0,0,0,0,0
		c0.2,0.7,0.3,1.3,0.3,2.1V11.9z M0.8,11.4c0-0.5,0.4-0.9,0.8-1.1v1.5c0,0.2,0,0.4,0,0.6C1.2,12.4,0.8,11.9,0.8,11.4 M17.9,9.5V8.1
		c0-4.5-3.6-8.1-8.1-8.1H9.7C5.3,0,1.6,3.6,1.6,8.1v1.4C0.7,9.7,0,10.5,0,11.4c0,1,0.8,1.8,1.7,1.9c0.7,3.8,4,6.7,8,6.7h0.1
		c4,0,7.3-2.9,8-6.7c1-0.1,1.7-0.9,1.7-1.9C19.6,10.5,18.9,9.7,17.9,9.5"/>
	<path class="st2" d="M16.4,4.8c0,0,0,0.1,0.1,0.1C16.4,4.9,16.4,4.9,16.4,4.8"/>
	<path class="st2" d="M16.5,5.2C16.5,5.2,16.6,5.2,16.5,5.2C16.6,5.2,16.5,5.2,16.5,5.2"/>
	<path class="st2" d="M13.4,14.2c-0.2-0.2-0.4-0.2-0.6,0c-1.7,1.7-4.5,1.7-6.3,0C6.5,14,6.2,14,6,14.2c-0.2,0.2-0.2,0.4,0,0.6
		c0.5,0.5,1,0.8,1.6,1.1c0.7,0.3,1.4,0.5,2.1,0.5c0.7,0,1.4-0.1,2.1-0.4c0.6-0.3,1.2-0.6,1.6-1.1C13.6,14.6,13.6,14.3,13.4,14.2"/>
	<path class="st2" d="M7.6,9.6C7.2,9.6,7,10,7,10.4s0.3,0.8,0.6,0.8c0.3,0,0.6-0.4,0.6-0.8S7.9,9.6,7.6,9.6"/>
	<path class="st2" d="M11.9,9.6c-0.3,0-0.6,0.4-0.6,0.8s0.3,0.8,0.6,0.8c0.3,0,0.6-0.4,0.6-0.8S12.2,9.6,11.9,9.6"/>
	<path class="st2" d="M17.6,10.2c-1.2-0.1-2.2-1.1-2.7-2.8c-0.1-0.5-0.2-1-0.2-1.4c0-0.2,0-0.4,0-0.5c-0.2,0.1-0.6,0.3-0.9,0.5
		c-1.4,0.8-2.2,1.3-2.7,0.9c-0.2-0.1-0.3-0.4-0.2-0.8C11,5.4,11.1,5,11.2,4.7C10.7,5,10,5.6,9.4,6C7.7,7.3,7.1,7.7,6.7,7.5
		c-0.1,0-0.3-0.2-0.2-0.6c0.1-0.8,0.2-1.4,0.2-1.7C6.2,5.6,5.4,6.7,4.9,7.4c-1,1.3-1.9,2.6-2.7,2.8L1.9,9.5C2.5,9.3,3.5,8,4.3,7
		c1.4-1.9,2.2-2.8,2.9-2.5l0.1,0.1l0,0.2c0,0.1,0.1,0.5-0.1,2C7.7,6.4,8.4,5.9,9,5.4c1.4-1.1,2-1.6,2.5-1.6c0.1,0,0.2,0,0.3,0
		C12,4,12.1,4.2,11.6,6.4c0,0,0,0.1,0,0.1c0.4-0.1,1.4-0.6,1.9-0.9c0.6-0.3,0.9-0.5,1.1-0.6c0.3-0.1,0.5,0,0.6,0.1
		c0.3,0.2,0.3,0.6,0.3,1.1c0,0.4,0,0.8,0.2,1.2c0.3,1,0.9,2.1,2,2.2L17.6,10.2z"/>
</g>
</svg>
