<?xml version="1.0" encoding="utf-8"?>
<!-- Generator: Adobe Illustrator 19.1.0, SVG Export Plug-In . SVG Version: 6.00 Build 0)  -->
<svg version="1.1" id="Layer_1" xmlns="http://www.w3.org/2000/svg" xmlns:xlink="http://www.w3.org/1999/xlink" x="0px" y="0px"
	 viewBox="0 0 24 20" style="enable-background:new 0 0 24 20;" xml:space="preserve">
<style type="text/css">
	.st0{fill:#F2F1F1;}
	.st1{fill:#FCD136;}
	.st2{fill:#00FF00;}
	.st3{fill:#FF0000;}
	.st4{fill:#FF0000;stroke:#FF0000;stroke-width:0.25;stroke-miterlimit:10;}
	.st5{fill:#FFFFFF;}
	.st6{fill:none;stroke:#FFFFFF;stroke-linecap:round;stroke-miterlimit:10;}
</style>
<g>
	<path class="st5" d="M1,12c0.4,0.5,1,1,1.8,1.3c1.4,0.7,3.3,1.1,5.5,1.1c0.3,0,0.6,0,0.9,0c0.2,0.9,0.6,1.7,1,2.4
		c-0.6,0.1-1.3,0.1-1.9,0.1c-2.1,0-3.9-0.4-5.2-1c-1.3-0.6-2-1.5-2-2.3V12z M1,8.6c0.4,0.5,1,1,1.8,1.3C4.2,10.6,6.1,11,8.3,11
		c0.3,0,0.6,0,0.9,0C9.1,11.5,9,12.1,9,12.7c0,0.4,0,0.7,0.1,1.1c-0.3,0-0.5,0-0.8,0c-2.1,0-3.9-0.4-5.2-1s-2-1.5-2-2.3v0V8.6z
		 M16.3,5.9c3.7,0,6.7,3,6.7,6.7s-3,6.7-6.7,6.7c-3.7,0-6.7-3-6.7-6.7S12.6,5.9,16.3,5.9 M1,5.4c0.4,0.5,1,1,1.8,1.3
		c1.4,0.7,3.3,1.1,5.5,1.1c1,0,1.9-0.1,2.8-0.3c-0.8,0.8-1.4,1.7-1.7,2.8c-0.4,0-0.7,0.1-1.1,0.1c-2.1,0-3.9-0.4-5.2-1
		C1.7,8.8,1,7.9,1,7.1v0V5.4z M15.5,5.4L15.5,5.4L15.5,5.4C15.5,5.4,15.5,5.4,15.5,5.4 M8.3,0.6c2,0,3.9,0.4,5.2,1
		c1.3,0.6,2,1.4,2.1,2.2v0v0c0,0.6-0.4,1.2-1.1,1.7c0,0,0,0,0,0c-0.9,0.2-1.7,0.6-2.4,1.1C10.9,7,9.7,7.2,8.3,7.2
		c-2.1,0-3.9-0.4-5.2-1c-1.2-0.6-2-1.4-2-2.1V3.9c0,0,0-0.1,0-0.1C1,3,1.8,2.2,3,1.6C4.4,1,6.2,0.6,8.3,0.6 M8.3,0
		C6.1,0,4.2,0.4,2.8,1.1C1.4,1.7,0.5,2.7,0.4,3.8c0,0,0,0,0,0v0c0,0,0,0.1,0,0.1V7v0.1v3.3v0v3.1c0,1.2,1,2.1,2.4,2.8
		c1.4,0.7,3.4,1.1,5.5,1.1c0.8,0,1.6-0.1,2.3-0.2c1.3,1.7,3.4,2.8,5.7,2.8c4,0,7.3-3.3,7.3-7.3c0-4-3.3-7.3-7.3-7.3h-0.2V3.9
		c0,0,0-0.1,0-0.1v0c0,0,0,0,0,0c-0.1-1.1-1-2-2.4-2.7C12.3,0.4,10.4,0,8.3,0"/>
</g>
</svg>
