<?xml version="1.0" encoding="utf-8"?>
<!-- Generator: Adobe Illustrator 19.1.0, SVG Export Plug-In . SVG Version: 6.00 Build 0)  -->
<svg version="1.1" id="Layer_1" xmlns="http://www.w3.org/2000/svg" xmlns:xlink="http://www.w3.org/1999/xlink" x="0px" y="0px"
	 viewBox="0 0 29.2 20" style="enable-background:new 0 0 29.2 20;" xml:space="preserve">
<style type="text/css">
	.st0{fill:#F2F1F1;}
	.st1{fill:#FCD136;}
	.st2{fill:#00FF00;}
	.st3{fill:#FF0000;}
	.st4{fill:#FF0000;stroke:#FF0000;stroke-width:0.25;stroke-miterlimit:10;}
	.st5{fill:#FFFFFF;}
	.st6{fill:none;stroke:#FFFFFF;stroke-linecap:round;stroke-miterlimit:10;}
</style>
<g>
	<path class="st1" d="M17.7,15.8c0,0.1-0.1,0.2-0.2,0.2c-0.1,0-0.2,0-0.3,0c0,0,0,0,0,0c0,0-0.1-0.1-0.1-0.1
		c-0.1-0.1-0.3-0.2-0.5-0.4c-0.4-0.3-1.1-0.8-1.9-1.3c-0.4-0.2-0.8-0.5-1.4-0.7l-0.1-7.5c0.5-0.3,1-0.5,1.3-0.8
		c0.8-0.5,1.5-1,1.9-1.4c0.2-0.2,0.4-0.4,0.5-0.5L17,3.2c0.1-0.1,0.2-0.1,0.3-0.1c0.1,0,0.2,0.1,0.2,0.2L17.7,15.8z M8.7,12.2
		c0,0-0.1,0-0.1,0l-0.5,0l-3.9,0.1l-0.2,0l-0.1,0c-1.4,0-2.5-1.1-2.5-2.5c0-1.4,1.1-2.5,2.5-2.5l4.7-0.1c0,0,0.1,0,0.1,0
		c1.2-0.1,2.3-0.4,3.3-0.7l0.1,6.4C11,12.6,9.9,12.3,8.7,12.2 M10.7,17.4l-1.5,1.2l-3.8-5.1l2.4,0L10.7,17.4z M17.8,2
		c-0.6-0.2-1.2-0.1-1.6,0.4l-0.1,0.1c-0.1,0.1-0.2,0.2-0.4,0.4c-0.4,0.3-1,0.8-1.8,1.3c-1.2,0.7-3,1.6-5.2,1.8l0,0L3.8,6.1
		c-2.1,0-3.7,1.7-3.7,3.7c0,2.1,1.7,3.7,3.8,3.7l4.4,6c0.1,0.2,0.4,0.3,0.6,0.4c0,0,0.1,0,0.1,0c0.2,0,0.4-0.1,0.6-0.2l2-1.6
		c0.4-0.3,0.5-0.9,0.2-1.3l-2.5-3.3c1.9,0.3,3.5,1,4.6,1.6c0.8,0.5,1.4,0.9,1.8,1.2c0.2,0.2,0.4,0.3,0.5,0.4l0.1,0.1
		c0.3,0.3,0.7,0.4,1.1,0.4c0.2,0,0.4,0,0.6-0.1c0.6-0.3,0.9-0.8,0.9-1.4L18.7,3.4C18.7,2.8,18.4,2.2,17.8,2"/>
	<path class="st1" d="M28.4,8.6l-5.2,0.1c-0.3,0-0.6,0.3-0.6,0.6c0,0.3,0.3,0.6,0.6,0.6l5.2-0.1c0.3,0,0.6-0.3,0.6-0.6
		C29,8.8,28.7,8.6,28.4,8.6"/>
	<path class="st1" d="M21.6,5.5c0.1,0,0.3-0.1,0.4-0.2l4.1-4.2c0.2-0.2,0.2-0.6,0-0.9c-0.2-0.2-0.6-0.2-0.9,0l-4.1,4.2
		c-0.2,0.2-0.2,0.6,0,0.9C21.3,5.4,21.4,5.5,21.6,5.5"/>
	<path class="st1" d="M22.1,13.3c-0.2-0.2-0.6-0.2-0.9,0c-0.2,0.2-0.2,0.6,0,0.9l4.2,4.1c0.1,0.1,0.3,0.2,0.4,0.2
		c0.1,0,0.3-0.1,0.4-0.2c0.2-0.2,0.2-0.6,0-0.9L22.1,13.3z"/>
</g>
</svg>
