<?xml version="1.0" encoding="utf-8"?>
<!-- Generator: Adobe Illustrator 19.1.0, SVG Export Plug-In . SVG Version: 6.00 Build 0)  -->
<svg version="1.1" id="Layer_1" xmlns="http://www.w3.org/2000/svg" xmlns:xlink="http://www.w3.org/1999/xlink" x="0px" y="0px"
	 viewBox="0 0 28 20" style="enable-background:new 0 0 28 20;" xml:space="preserve">
<style type="text/css">
	.st0{fill:#F2F1F1;}
	.st1{fill:#FCD136;}
	.st2{fill:#00FF00;}
	.st3{fill:#FF0000;}
	.st4{fill:#FF0000;stroke:#FF0000;stroke-width:0.25;stroke-miterlimit:10;}
	.st5{fill:#FFFFFF;}
	.st6{fill:none;stroke:#FFFFFF;stroke-linecap:round;stroke-miterlimit:10;}
</style>
<g>
	<path class="st2" d="M1.4,8.1h1c0.2,0,0.4,0.2,0.4,0.4v10.1C2.7,18.8,3,19,3.4,19h12.9c0.4,0,0.7-0.2,0.7-0.4V8.5
		c0-0.2,0.2-0.4,0.4-0.4h1L9.9,0.9L1.4,8.1z M16.4,19.8H3.4c-0.8,0-1.4-0.5-1.4-1.1V8.9H0.3C0.2,8.9,0,8.8,0,8.6
		c-0.1-0.1,0-0.3,0.1-0.4l9.6-8.1C9.8,0,10,0,10.1,0.1l9.6,8.1c0.1,0.1,0.2,0.3,0.1,0.4c-0.1,0.1-0.2,0.2-0.4,0.2h-1.6v9.8
		C17.8,19.3,17.2,19.8,16.4,19.8"/>
	<path class="st2" d="M20.1,16.3l4.1,2.9c0.2,0.2,0.5,0.1,0.7-0.1l2.1-3c0.2-0.2,0.1-0.5-0.1-0.7l-4.1-2.9L19.4,13
		C19.7,14.2,20,15.8,20.1,16.3 M24.5,20c-0.3,0-0.5-0.1-0.7-0.2l-4.2-3c0,0-0.1-0.1-0.1-0.1c-0.1-0.1-0.1-0.2-0.9-4
		c0-0.1,0-0.2,0.1-0.3c0.1-0.1,0.1-0.1,0.3-0.2l3.9-0.6c0.1,0,0.2,0,0.3,0.1l4.2,3c0.6,0.4,0.7,1.2,0.3,1.7l-2.1,3
		C25.3,19.8,24.9,20,24.5,20"/>
	<path class="st2" d="M21.1,13.5c0.2,0.2,0.3,0.5,0.1,0.7c-0.2,0.2-0.5,0.3-0.7,0.1c-0.2-0.2-0.3-0.5-0.1-0.7
		C20.5,13.3,20.8,13.3,21.1,13.5"/>
	<path class="st2" d="M20.7,14.2c-2.8-0.1-3.7-2.8-3.7-2.9l0.7-0.2c0,0.1,0.7,2.2,3,2.3L20.7,14.2z"/>
	<path class="st2" d="M9.9,15.3c-0.2,0-0.4-0.2-0.4-0.4v-5l-1.1,1.3c-0.1,0.2-0.4,0.2-0.5,0.1c-0.2-0.1-0.2-0.4-0.1-0.5l1.8-2.1
		C9.7,8.6,9.8,8.5,10,8.6c0.1,0.1,0.2,0.2,0.2,0.4V15C10.2,15.2,10.1,15.3,9.9,15.3"/>
	<path class="st2" d="M11.7,11.5c-0.1,0-0.2,0-0.3-0.1L9.6,9.1C9.5,8.9,9.5,8.7,9.7,8.6c0.2-0.1,0.4-0.1,0.5,0.1l1.8,2.3
		c0.1,0.2,0.1,0.4-0.1,0.5C11.9,11.5,11.8,11.5,11.7,11.5"/>
</g>
</svg>
